# xmcd CD database file
#
# Track frame offsets:
#	150
#	25500
#	53400
#	84038
#	104214
#	127587
#	153522
#	188594
#
# Disc length: 2745 seconds
#
# Revision: 0
# Processed by: cddbd v1.5.2PL0 Copyright (c) Steve Scherf et al.
# Submitted via: CDex 1.70beta2
#
DISCID=4d0ab708
DTITLE=Steinar Aadnekvam - Freedoms Tree
DYEAR=2015
DGENRE=Jazz
TTITLE0=Cold Shower
TTITLE1=Hillside
TTITLE2=Viva Sagui
TTITLE3=You are my Sunshine and my Smile
TTITLE4=Agradecendo
TTITLE5=Ecology
TTITLE6=Come with me
TTITLE7=Dare to Dream
EXTD=YEAR: 2015
EXTT0=
EXTT1=
EXTT2=
EXTT3=
EXTT4=
EXTT5=
EXTT6=
EXTT7=
PLAYORDER=
